<svg xmlns="http://www.w3.org/2000/svg" width="17" height="18" viewBox="0 0 17 18"><g color="#000"><path d="M14 1v1h-1v1h-1v1h-1v2h2v1h-1v1h-1v1h-1v1H9v1H8v1H7v1H6v1H5v1H4v3h1v-1h1v-1h1v-1h1v-1h1v-1h1v-1h1v-1h1v-1h1V9h1V8h1V7h1V6h-2V4h1V3h1V2h1V1zM1 9v2h6V9z" style="marker:none" overflow="visible"/><path d="M4 0v2H3v2H2v2H1v2H0v2h6v2H5v2H4v2h1v-1h1v-1h1v-1h1v-1h1v-1h1v-1h1V9h1V8h1V7h1V6h1V5h-3V4h1V3h1V2h1V1h1V0zm0 16H3v1h1z" style="marker:none" fill="#fff" overflow="visible"/><path d="M5 2v2H4v2h1v1h1V6h1v1h1V6h1V5h1V4h1V3h1V2zm3 5v1h1V7zM7 7H6v1h1zM5 7H4v1h1zM4 7V6H3v1zm6 0v1h1V7z" style="marker:none" fill="#2f7f6f" overflow="visible"/><path d="M4 6v1h1V6H4zm1 1v1h1V7H5zm1 0h1V6H6v1zm1 0v1h1V7H7zm1 0h1V6H8v1zm1 0v1H8v2h1V9h1V7H9zM4 7H3v1h1V7z" style="marker:none" fill="#cf0" overflow="visible"/></g></svg>